<svg xmlns="http://www.w3.org/2000/svg" version="1.1" width="1024" height="1024">
<path d="M0 0 C0.81726563 0.67417969 1.63453125 1.34835938 2.4765625 2.04296875 C5.54451989 4.64556182 7.88248877 6.82394759 10.140625 10.20703125 C13.22963302 13.27214437 13.22963302 13.27214437 17.16796875 13.3671875 C18.84365218 13.23108795 20.51705867 13.06490478 22.1875 12.875 C24.07247818 12.72611126 25.95793193 12.58315588 27.84375 12.4453125 C28.84148438 12.36700195 29.83921875 12.28869141 30.8671875 12.20800781 C62.60157341 10.10095538 97.01084386 14.54036265 122.05541992 36.06274414 C139.04488786 51.56050762 150.91869283 72.0454559 154 95 C153.99501426 96.44951958 153.96404155 97.89913002 153.91015625 99.34765625 C153.77810672 103.83881308 153.8557353 107.61808711 155 112 C158.67377695 115.64324694 162.61827129 117.77366045 167.21679688 120.06005859 C187.5792892 130.79330003 202.09053839 153.87654122 208.8125 175.1875 C216.0220537 199.3319204 213.70175092 222.31606139 202.1875 244.6875 C191.41732234 263.54897864 174.3258224 276.03110501 154 283 C151.37190241 283.70323608 148.75736754 284.36883396 146.109375 284.984375 C145.3660643 285.15747192 144.6227536 285.33056885 143.85691833 285.50891113 C136.31221811 287.22152068 128.72364123 288.44124483 121.0625 289.5 C119.98269363 289.65292007 119.98269363 289.65292007 118.881073 289.80892944 C102.09415422 292.17412175 85.22862306 293.77678238 68.34765625 295.30078125 C67.16719727 295.40819389 67.16719727 295.40819389 65.96289062 295.51777649 C62.62119998 295.81186429 59.35808386 296 56 296 C56.04640625 296.825 56.0928125 297.65 56.140625 298.5 C56.65288716 314.89238916 52.63764553 330.1626416 41.55078125 342.6015625 C40 344 40 344 38 344 C41.26532914 348.44447577 44.62449942 352.7859348 48.10449219 357.06298828 C78.5266945 394.56807328 100.91180579 438.129766 112.5625 485 C119.37223627 512.15085513 133.41026196 530.48650724 155.26171875 547.7734375 C160.75466985 552.23988847 165.87248367 557.12305913 171 562 C171.77609619 562.73307373 171.77609619 562.73307373 172.56787109 563.48095703 C180.55235443 571.06482165 187.40266395 579.19570076 194 588 C194.93873392 589.23182278 195.87753651 590.46359323 196.81640625 591.6953125 C202.74468791 599.54797397 208.09732265 607.61437601 212.95898438 616.16894531 C213.95431381 617.91964202 214.96890522 619.65934556 215.984375 621.3984375 C227.86798891 642.55127025 235.58820305 665.94270988 240.25 689.6875 C240.40130371 690.45739258 240.55260742 691.22728516 240.70849609 692.02050781 C243.50309639 707.32291804 244.37873366 722.53841831 244.3125 738.0625 C244.30976578 739.40220856 244.30976578 739.40220856 244.30697632 740.76898193 C244.25709706 755.34769745 243.57537618 769.62060693 241 784 C240.82839355 784.9698584 240.65678711 785.9397168 240.47998047 786.93896484 C231.57587569 835.48583101 205.43273029 878.18200846 165.73535156 907.70898438 C164.60478336 908.55007113 163.47885704 909.39744514 162.35839844 910.25195312 C136.92937396 929.6425446 107.05103277 942.64522061 77 953 C76.33276917 953.232565 75.66553833 953.46513 74.97808838 953.70474243 C63.53028001 957.68389834 52.01414523 961.03080277 40.25 963.9375 C38.96974945 964.25574234 38.96974945 964.25574234 37.66363525 964.58041382 C-49.34988131 986.09758848 -140.02071457 988.71247793 -373 976 C-373.88753967 975.88591797 -374.77507935 975.77183594 -375.68951416 975.65429688 C-461.89840871 964.5062091 -553.69222517 944.33917364 -618.53662109 882.39599609 C-619.5110153 881.46646889 -620.4905249 880.54227418 -621.47509766 879.62353516 C-656.16908549 847.19294422 -677.9755763 797.98607829 -680.10772705 750.60612488 C-680.16277966 748.19798211 -680.19024265 745.79154725 -680.203125 743.3828125 C-680.21013931 742.49621445 -680.21715363 741.60961639 -680.22438049 740.69615173 C-680.24181905 737.83904892 -680.24823656 734.98215414 -680.25 732.125 C-680.25067474 731.1436911 -680.25134949 730.1623822 -680.25204468 729.15133667 C-680.23434536 712.90518156 -679.433678 697.08595903 -677 681 C-676.83902832 679.88367188 -676.67805664 678.76734375 -676.51220703 677.6171875 C-666.29484143 608.04880384 -641.92020749 537.67314453 -603 479 C-602.54947266 478.32066406 -602.09894531 477.64132812 -601.63476562 476.94140625 C-591.51105554 461.77800983 -580.7877953 446.91585747 -569 433 C-568.10765282 431.93394525 -567.21574952 430.86751885 -566.32421875 429.80078125 C-561.41059542 423.93910962 -556.42058885 418.16391336 -551.265625 412.51171875 C-550.06066423 411.17587431 -548.86084367 409.83454723 -547.70288086 408.45776367 C-541.88114787 401.59521187 -535.46261354 395.31220323 -529.09399414 388.96362305 C-527.0673702 386.94235732 -525.04614453 384.91580426 -523.02539062 382.88867188 C-516.85537938 376.71514373 -510.7014964 370.60250229 -504 365 C-502.89304265 364.03947327 -501.7875501 363.0772556 -500.68359375 362.11328125 C-443.48023332 312.63185096 -377.35738289 276.04381969 -305 254 C-304.2152832 253.75797852 -303.43056641 253.51595703 -302.62207031 253.26660156 C-280.66246588 246.55754341 -257.82431415 242.33018638 -235 240 C-234.10007324 239.90356201 -233.20014648 239.80712402 -232.27294922 239.70776367 C-223.59775399 238.86967653 -214.95376364 238.8856686 -206.25 238.9375 C-204.76302236 238.94253015 -203.27604305 238.94709035 -201.7890625 238.95117188 C-198.19267294 238.96204568 -194.59634763 238.9792248 -191 239 C-191.02191406 237.78570312 -191.04382813 236.57140625 -191.06640625 235.3203125 C-191.04378891 220.61903961 -182.58144 206.60802286 -173 196 C-172.4121875 195.34257812 -171.824375 194.68515625 -171.21875 194.0078125 C-167.26496793 189.82039785 -162.97605948 186.85973628 -158 184 C-158.56711797 175.82973611 -160.17029432 167.99836741 -161.875 160 C-171.57884905 112.89085214 -173.44572829 60.53316254 -146.4375 18.4375 C-142.88787637 13.08592214 -139.11471824 7.93024798 -135 3 C-134.38640625 2.25234375 -133.7728125 1.5046875 -133.140625 0.734375 C-96.00936592 -42.93198568 -39.53101961 -32.9079537 0 0 Z " fill="#FBC11B" transform="translate(730,33)"/>
<path d="M0 0 C0.81726563 0.67417969 1.63453125 1.34835938 2.4765625 2.04296875 C5.54451989 4.64556182 7.88248877 6.82394759 10.140625 10.20703125 C13.22963302 13.27214437 13.22963302 13.27214437 17.16796875 13.3671875 C18.84365218 13.23108795 20.51705867 13.06490478 22.1875 12.875 C24.07247818 12.72611126 25.95793193 12.58315588 27.84375 12.4453125 C28.84148438 12.36700195 29.83921875 12.28869141 30.8671875 12.20800781 C62.60157341 10.10095538 97.01084386 14.54036265 122.05541992 36.06274414 C139.04488786 51.56050762 150.91869283 72.0454559 154 95 C153.99501426 96.44951958 153.96404155 97.89913002 153.91015625 99.34765625 C153.77810672 103.83881308 153.8557353 107.61808711 155 112 C158.67377695 115.64324694 162.61827129 117.77366045 167.21679688 120.06005859 C187.5792892 130.79330003 202.09053839 153.87654122 208.8125 175.1875 C216.0220537 199.3319204 213.70175092 222.31606139 202.1875 244.6875 C191.41732234 263.54897864 174.3258224 276.03110501 154 283 C151.37190241 283.70323608 148.75736754 284.36883396 146.109375 284.984375 C145.3660643 285.15747192 144.6227536 285.33056885 143.85691833 285.50891113 C136.31221811 287.22152068 128.72364123 288.44124483 121.0625 289.5 C119.98269363 289.65292007 119.98269363 289.65292007 118.881073 289.80892944 C102.09415422 292.17412175 85.22862306 293.77678238 68.34765625 295.30078125 C67.16719727 295.40819389 67.16719727 295.40819389 65.96289062 295.51777649 C62.62119998 295.81186429 59.35808386 296 56 296 C56.04640625 296.825 56.0928125 297.65 56.140625 298.5 C56.65288716 314.89238916 52.63764553 330.1626416 41.55078125 342.6015625 C40 344 40 344 38 344 C41.26532914 348.44447577 44.62449942 352.7859348 48.10449219 357.06298828 C78.5266945 394.56807328 100.91180579 438.129766 112.5625 485 C119.37223627 512.15085513 133.41026196 530.48650724 155.26171875 547.7734375 C160.75466985 552.23988847 165.87248367 557.12305913 171 562 C171.77609619 562.73307373 171.77609619 562.73307373 172.56787109 563.48095703 C180.55235443 571.06482165 187.40266395 579.19570076 194 588 C194.93873392 589.23182278 195.87753651 590.46359323 196.81640625 591.6953125 C202.74468791 599.54797397 208.09732265 607.61437601 212.95898438 616.16894531 C213.95431381 617.91964202 214.96890522 619.65934556 215.984375 621.3984375 C227.86798891 642.55127025 235.58820305 665.94270988 240.25 689.6875 C240.40130371 690.45739258 240.55260742 691.22728516 240.70849609 692.02050781 C243.50309639 707.32291804 244.37873366 722.53841831 244.3125 738.0625 C244.30976578 739.40220856 244.30976578 739.40220856 244.30697632 740.76898193 C244.25709706 755.34769745 243.57537618 769.62060693 241 784 C240.82839355 784.9698584 240.65678711 785.9397168 240.47998047 786.93896484 C231.57587569 835.48583101 205.43273029 878.18200846 165.73535156 907.70898438 C164.60478336 908.55007113 163.47885704 909.39744514 162.35839844 910.25195312 C136.92937396 929.6425446 107.05103277 942.64522061 77 953 C76.33276917 953.232565 75.66553833 953.46513 74.97808838 953.70474243 C63.53028001 957.68389834 52.01414523 961.03080277 40.25 963.9375 C38.96974945 964.25574234 38.96974945 964.25574234 37.66363525 964.58041382 C-49.34988131 986.09758848 -140.02071457 988.71247793 -373 976 C-373.88753967 975.88591797 -374.77507935 975.77183594 -375.68951416 975.65429688 C-461.89840871 964.5062091 -553.69222517 944.33917364 -618.53662109 882.39599609 C-619.5110153 881.46646889 -620.4905249 880.54227418 -621.47509766 879.62353516 C-656.16908549 847.19294422 -677.9755763 797.98607829 -680.10772705 750.60612488 C-680.16277966 748.19798211 -680.19024265 745.79154725 -680.203125 743.3828125 C-680.21013931 742.49621445 -680.21715363 741.60961639 -680.22438049 740.69615173 C-680.24181905 737.83904892 -680.24823656 734.98215414 -680.25 732.125 C-680.25067474 731.1436911 -680.25134949 730.1623822 -680.25204468 729.15133667 C-680.23434536 712.90518156 -679.433678 697.08595903 -677 681 C-676.83902832 679.88367188 -676.67805664 678.76734375 -676.51220703 677.6171875 C-666.29484143 608.04880384 -641.92020749 537.67314453 -603 479 C-602.54947266 478.32066406 -602.09894531 477.64132812 -601.63476562 476.94140625 C-591.51105554 461.77800983 -580.7877953 446.91585747 -569 433 C-568.10765282 431.93394525 -567.21574952 430.86751885 -566.32421875 429.80078125 C-561.41059542 423.93910962 -556.42058885 418.16391336 -551.265625 412.51171875 C-550.06066423 411.17587431 -548.86084367 409.83454723 -547.70288086 408.45776367 C-541.88114787 401.59521187 -535.46261354 395.31220323 -529.09399414 388.96362305 C-527.0673702 386.94235732 -525.04614453 384.91580426 -523.02539062 382.88867188 C-516.85537938 376.71514373 -510.7014964 370.60250229 -504 365 C-502.89304265 364.03947327 -501.7875501 363.0772556 -500.68359375 362.11328125 C-443.48023332 312.63185096 -377.35738289 276.04381969 -305 254 C-304.2152832 253.75797852 -303.43056641 253.51595703 -302.62207031 253.26660156 C-280.66246588 246.55754341 -257.82431415 242.33018638 -235 240 C-234.10007324 239.90356201 -233.20014648 239.80712402 -232.27294922 239.70776367 C-223.59775399 238.86967653 -214.95376364 238.8856686 -206.25 238.9375 C-204.76302236 238.94253015 -203.27604305 238.94709035 -201.7890625 238.95117188 C-198.19267294 238.96204568 -194.59634763 238.9792248 -191 239 C-191.02191406 237.78570312 -191.04382813 236.57140625 -191.06640625 235.3203125 C-191.04378891 220.61903961 -182.58144 206.60802286 -173 196 C-172.4121875 195.34257812 -171.824375 194.68515625 -171.21875 194.0078125 C-167.26496793 189.82039785 -162.97605948 186.85973628 -158 184 C-158.56711797 175.82973611 -160.17029432 167.99836741 -161.875 160 C-171.57884905 112.89085214 -173.44572829 60.53316254 -146.4375 18.4375 C-142.88787637 13.08592214 -139.11471824 7.93024798 -135 3 C-134.38640625 2.25234375 -133.7728125 1.5046875 -133.140625 0.734375 C-96.00936592 -42.93198568 -39.53101961 -32.9079537 0 0 Z M-250.4375 303.1875 C-251.69989502 303.40325684 -252.96229004 303.61901367 -254.26293945 303.84130859 C-336.30562597 318.15283613 -417.41455738 352.51028103 -480 408 C-480.93457031 408.82242188 -481.86914062 409.64484375 -482.83203125 410.4921875 C-495.57363805 421.93290297 -508.50854233 433.91277766 -519.0234375 447.46484375 C-520.88212607 449.84881388 -522.82787743 452.1337069 -524.81225586 454.41333008 C-536.85144936 468.30339195 -547.28378621 483.42135914 -557 499 C-557.36867188 499.58040039 -557.73734375 500.16080078 -558.1171875 500.75878906 C-594.67605559 558.3656916 -617.2998564 628.15796441 -617.1875 696.5625 C-617.18623108 697.35913055 -617.18496216 698.15576111 -617.18365479 698.97653198 C-617.05088599 742.75786352 -606.47391987 786.01223962 -579 821 C-578.35546875 821.86496094 -577.7109375 822.72992187 -577.046875 823.62109375 C-537.45092977 874.83081032 -472.87424986 900.34731482 -411 912 C-409.80713379 912.22751953 -408.61426758 912.45503906 -407.38525391 912.68945312 C-364.61430666 920.72809751 -321.38587802 925.00803404 -278 928 C-277.24355194 928.05241852 -276.48710388 928.10483704 -275.70773315 928.15884399 C-189.11736179 934.08349365 -98.19086574 931.58898614 -13 914 C-12.31417847 913.85884766 -11.62835693 913.71769531 -10.92175293 913.57226562 C53.3103925 900.30959943 116.24704766 874.74314595 153.71801758 817.86425781 C164.79700258 800.59273963 171.6645842 782.23651529 175 762 C175.226875 760.700625 175.45375 759.40125 175.6875 758.0625 C177.8699124 736.82944602 174.07523724 715.52922048 169 695 C168.81598633 694.24654297 168.63197266 693.49308594 168.44238281 692.71679688 C161.66873362 665.69732377 148.47718103 640.32601904 132 618 C131.56220215 617.40525879 131.1244043 616.81051758 130.67333984 616.19775391 C123.45969323 606.49848619 115.39943765 597.6784115 107 589 C106.15187744 588.11900635 106.15187744 588.11900635 105.28662109 587.22021484 C98.24438381 579.93253217 90.97789873 573.27164294 83 567 C81.03756884 565.42174849 79.07919577 563.83843721 77.125 562.25 C76.26132812 561.55390625 75.39765625 560.8578125 74.5078125 560.140625 C63.29610121 550.57050384 60.66878052 540.62791384 59.49047852 526.17016602 C57.79982391 506.7427125 49.40886968 488.37548605 41 471 C40.25387451 469.43838135 40.25387451 469.43838135 39.49267578 467.84521484 C30.91473796 449.96001983 21.37465439 432.91668224 11 416 C10.34821777 414.92637207 9.69643555 413.85274414 9.02490234 412.74658203 C-6.86534596 386.58634095 -24.60321122 361.91223936 -49 343 C-49.5475293 342.57074219 -50.09505859 342.14148438 -50.65917969 341.69921875 C-78.08923223 320.32195153 -110.05934333 308.31534334 -144 302 C-144.85932129 301.83338867 -145.71864258 301.66677734 -146.60400391 301.49511719 C-161.54393051 298.72133877 -176.54424416 298.71431717 -191.6875 298.6875 C-192.68152832 298.68382416 -193.67555664 298.68014832 -194.69970703 298.67636108 C-213.47402565 298.64017028 -231.9253844 300.01683711 -250.4375 303.1875 Z " fill="#2F2F2E" transform="translate(730,33)"/>
<path d="M0 0 C1.00106277 0.36405945 2.00212555 0.7281189 3.03352356 1.10321045 C6.2192908 2.26408347 9.40061049 3.43665005 12.58203125 4.609375 C14.69959755 5.38225672 16.81743389 6.154399 18.93554688 6.92578125 C23.90552259 8.73877054 28.86886224 10.56898629 33.82855225 12.40991211 C36.10767908 13.25323403 38.39021819 14.08628508 40.67431641 14.91601562 C41.83624512 15.34591797 42.99817383 15.77582031 44.1953125 16.21875 C45.15219971 16.56905273 46.10908691 16.91935547 47.0949707 17.28027344 C50.97156376 19.09941998 50.97156376 19.09941998 52.39453125 21.359375 C53.01597902 27.56388299 51.74565937 32.2562076 49.55078125 38.015625 C49.11795837 39.19723206 49.11795837 39.19723206 48.6763916 40.40270996 C47.7611156 42.89289917 46.8281958 45.37602975 45.89453125 47.859375 C45.26704674 49.55685504 44.6407328 51.25476828 44.015625 52.953125 C42.48874768 57.09367281 40.9460223 61.22799048 39.39453125 65.359375 C40.29860718 65.79830078 40.29860718 65.79830078 41.22094727 66.24609375 C55.35197136 73.48381922 68.28634508 85.27484111 80.39453125 95.359375 C81.1520166 95.98730957 81.1520166 95.98730957 81.92480469 96.62792969 C89.77332667 103.1434104 97.33862045 109.90915703 104.79052734 116.87304688 C106.39199731 118.35702696 108.00892357 119.82186146 109.6328125 121.28125 C124.59086309 134.734059 124.59086309 134.734059 126.33203125 140.421875 C124.0421197 147.59693118 114.62555708 152.52427382 108.70703125 156.796875 C100.55753394 162.73657349 92.51332195 168.80226577 84.51293945 174.94116211 C82.88269793 176.19005688 81.24776125 177.43285502 79.60742188 178.66845703 C78.20749962 179.73816815 76.82775803 180.83529696 75.47851562 181.96826172 C72.48676579 184.38512303 70.73074177 185.34456396 66.84765625 185.515625 C62.67586813 184.11873667 60.1575797 181.93184227 57.14453125 178.859375 C56.00629358 177.75404668 54.86563528 176.65120599 53.72265625 175.55078125 C52.88057617 174.73311279 52.88057617 174.73311279 52.02148438 173.89892578 C48.90619337 170.95099285 45.54109339 168.31599881 42.19921875 165.6328125 C39.65024278 163.56665092 37.14931789 161.45766803 34.6574707 159.32373047 C29.59544311 154.99131693 24.46751332 150.76180784 19.20703125 146.671875 C18.37776123 146.02037476 18.37776123 146.02037476 17.53173828 145.35571289 C14.7804706 143.04890832 14.7804706 143.04890832 11.39453125 142.359375 C8.79999566 149.57303511 6.2092554 156.78804857 3.62331486 164.00479412 C2.42236121 167.35599766 1.22011927 170.70672709 0.01489258 174.05639648 C-1.37155547 177.90991131 -2.75232485 181.76543961 -4.1328125 185.62109375 C-4.5651268 186.82021896 -4.9974411 188.01934418 -5.44285583 189.25480652 C-5.84319534 190.37559097 -6.24353485 191.49637543 -6.65600586 192.65112305 C-7.18562172 194.12671944 -7.18562172 194.12671944 -7.72593689 195.63212585 C-8.5676301 198.24204504 -9.32425706 200.62888039 -9.60546875 203.359375 C-7.83365719 205.44857194 -6.2491505 207.00936558 -4.16796875 208.734375 C-3.33906128 209.45608887 -3.33906128 209.45608887 -2.4934082 210.19238281 C-0.87630479 211.59643067 0.75711073 212.97913009 2.39453125 214.359375 C3.83441314 215.60663055 5.27234276 216.85614909 6.70703125 218.109375 C7.33222656 218.65078125 7.95742188 219.1921875 8.6015625 219.75 C11.04056239 221.9392548 13.31749622 224.27184842 15.61328125 226.609375 C17.47842799 228.44179987 19.41380871 230.15290635 21.39453125 231.859375 C27.21291365 236.89300447 32.44381045 242.31442403 37.45703125 248.14453125 C39.65749579 250.65998164 41.93252375 253.09822552 44.20703125 255.546875 C60.56334652 273.5189357 73.17646434 293.77099972 79.39453125 317.359375 C79.64074219 318.28878906 79.88695312 319.21820312 80.140625 320.17578125 C85.03197401 342.27118538 79.31396414 365.463402 67.39453125 384.359375 C58.17176098 397.46220941 46.51158516 407.40922608 33.39453125 416.359375 C32.54246094 416.94589844 31.69039062 417.53242187 30.8125 418.13671875 C23.8123111 422.63258113 16.08402026 425.58324665 8.36132812 428.59277344 C6.68567002 429.24589738 5.01599045 429.91432604 3.34765625 430.5859375 C-26.27926245 442.06855984 -63.75966136 439.99661829 -93.60546875 430.359375 C-93.74049805 431.08697021 -93.87552734 431.81456543 -94.01464844 432.56420898 C-94.94547141 436.96792476 -96.41246507 441.16347904 -97.85546875 445.421875 C-98.14292969 446.31970703 -98.43039062 447.21753906 -98.7265625 448.14257812 C-100.42606081 453.1334629 -101.69093376 456.79305717 -106.60546875 459.359375 C-111.76271945 459.85892157 -115.91639297 458.43234012 -120.66015625 456.61328125 C-121.43108109 456.32669144 -122.20200592 456.04010162 -122.99629211 455.74482727 C-125.49472893 454.81342842 -127.98765388 453.86820674 -130.48046875 452.921875 C-132.19544637 452.2774305 -133.91069853 451.63371613 -135.6262207 450.99072266 C-138.19693746 450.02646993 -140.76714222 449.06097104 -143.33570862 448.09100342 C-148.32424632 446.20763123 -153.3242165 444.36555822 -158.34375 442.56640625 C-159.45186035 442.16542725 -160.5599707 441.76444824 -161.70166016 441.35131836 C-163.70983995 440.6257282 -165.7211033 439.90859623 -167.73583984 439.20141602 C-169.05382568 438.71886353 -169.05382568 438.71886353 -170.3984375 438.2265625 C-171.14633545 437.95956543 -171.8942334 437.69256836 -172.66479492 437.41748047 C-175.08457583 436.09815345 -176.17374615 434.69727559 -177.60546875 432.359375 C-178.72252271 425.32193507 -175.58901647 419.090465 -173.10546875 412.609375 C-172.25757388 410.36614564 -171.4136278 408.12141851 -170.57421875 405.875 C-170.19716797 404.88790039 -169.82011719 403.90080078 -169.43164062 402.88378906 C-168.44994922 400.32687104 -168.44994922 400.32687104 -168.60546875 397.359375 C-170.19084177 396.09935245 -170.19084177 396.09935245 -172.41796875 394.984375 C-187.16844962 386.53466531 -200.63914267 376.30256242 -213.60546875 365.359375 C-214.83308668 364.33824506 -216.06094767 363.31740727 -217.2890625 362.296875 C-225.15404123 355.71000866 -232.45103968 348.70572616 -239.60546875 341.359375 C-242.04024821 338.90963529 -244.48591103 336.47536974 -246.96484375 334.0703125 C-252.99460576 328.17848623 -258.42805383 322.0051824 -263.60546875 315.359375 C-264.14204102 314.67262695 -264.67861328 313.98587891 -265.23144531 313.27832031 C-267.00833357 310.99770053 -268.77732635 308.71121048 -270.54296875 306.421875 C-271.39532104 305.32057251 -271.39532104 305.32057251 -272.26489258 304.19702148 C-273.06576294 303.15010132 -273.06576294 303.15010132 -273.8828125 302.08203125 C-274.35968506 301.46078369 -274.83655762 300.83953613 -275.32788086 300.19946289 C-277.84051263 296.58056252 -279.26671221 293.86119193 -278.60546875 289.359375 C-277.04101562 287.59472656 -277.04101562 287.59472656 -274.82421875 286 C-273.99921875 285.40380859 -273.17421875 284.80761719 -272.32421875 284.19335938 C-267.65606963 281.04437085 -262.9079228 278.04873157 -258.10546875 275.109375 C-255.97327624 273.79146748 -253.84176933 272.47245013 -251.7109375 271.15234375 C-250.15318604 270.18820557 -250.15318604 270.18820557 -248.56396484 269.20458984 C-244.48297678 266.65927644 -240.44659065 264.04899239 -236.41796875 261.421875 C-235.07443145 260.55175482 -233.7306884 259.68195223 -232.38671875 258.8125 C-230.49527206 257.58828143 -228.60692079 256.36033347 -226.7265625 255.11914062 C-224.964724 253.95767384 -223.19284194 252.81328658 -221.41796875 251.671875 C-220.43441406 251.02863281 -219.45085937 250.38539063 -218.4375 249.72265625 C-214.98399859 248.06021212 -213.38159554 247.55533279 -209.60546875 248.359375 C-206.89703835 250.46670065 -204.72034657 252.95776892 -202.48046875 255.546875 C-201.56974609 256.55717773 -201.56974609 256.55717773 -200.640625 257.58789062 C-198.14067453 260.37922966 -195.72880286 263.20318101 -193.40625 266.14453125 C-191.70160042 268.2411393 -189.99184468 269.88766668 -187.91796875 271.609375 C-184.88802073 274.19209822 -182.06802824 276.87974391 -179.29296875 279.734375 C-174.38049706 284.69714504 -169.0760927 289.02964543 -163.60546875 293.359375 C-162.47489713 294.26907995 -161.34470281 295.17925395 -160.21484375 296.08984375 C-152.92071006 301.93261944 -145.48671968 307.32172559 -137.60546875 312.359375 C-135.90115441 309.80290348 -134.96386351 307.89306627 -133.94482422 305.0534668 C-133.63044403 304.18372726 -133.31606384 303.31398773 -132.99215698 302.41789246 C-132.65572174 301.47432388 -132.3192865 300.53075531 -131.97265625 299.55859375 C-131.43936203 298.07840508 -131.43936203 298.07840508 -130.89529419 296.5683136 C-129.75321095 293.39585497 -128.61670243 290.2214328 -127.48046875 287.046875 C-126.36891747 283.95321906 -125.25623046 280.85997415 -124.14312744 277.76687622 C-123.40464393 275.71181081 -122.66811082 273.65604348 -121.93353271 271.59957886 C-120.0738281 266.39991147 -118.18351396 261.21508813 -116.23144531 256.04931641 C-115.85448517 255.04278519 -115.47752502 254.03625397 -115.08914185 252.9992218 C-114.37196511 251.0885829 -113.64620153 249.18113826 -112.91061401 247.2775116 C-112.43303146 245.99896049 -112.43303146 245.99896049 -111.94580078 244.69458008 C-111.66189484 243.95097733 -111.37798889 243.20737457 -111.08547974 242.4412384 C-110.51758509 239.97821335 -110.6719041 238.69942033 -111.60546875 236.359375 C-113.68630523 234.33422287 -115.74036502 232.50258551 -117.98046875 230.671875 C-118.61460693 230.14078125 -119.24874512 229.6096875 -119.90209961 229.0625 C-123.62473959 225.95444901 -127.39588963 222.90712578 -131.16796875 219.859375 C-136.53632667 215.50451238 -141.57481157 210.83911068 -146.625 206.125 C-148.87145564 204.03026576 -151.15020303 201.98607831 -153.48046875 199.984375 C-169.12588023 186.35240255 -183.0648539 172.35401031 -193.60546875 154.359375 C-194.17007813 153.40933594 -194.7346875 152.45929688 -195.31640625 151.48046875 C-204.88440745 134.02008078 -208.02577088 112.29418563 -203.10546875 92.921875 C-193.28696142 64.32762559 -173.2123459 42.48998457 -146.29296875 29.07421875 C-110.67827901 12.11975197 -69.32812268 16.56379963 -32.60546875 27.359375 C-32.47011719 26.77414062 -32.33476563 26.18890625 -32.1953125 25.5859375 C-30.59081271 19.18715391 -28.49308618 13.0254801 -26.16796875 6.859375 C-25.87978271 6.06998535 -25.59159668 5.2805957 -25.29467773 4.46728516 C-24.10236997 1.37428874 -22.9969724 -1.16478383 -20.8828125 -3.734375 C-14.34532916 -6.33591211 -6.17856354 -2.29252994 0 0 Z " fill="#2F2F2E" transform="translate(588.60546875,422.640625)"/>
<path d="M0 0 C8.20648988 4.70981158 15.51531489 10.65768254 21.64453125 17.8671875 C29.09653535 26.56813083 39.12483126 33.52354087 50.14453125 36.8046875 C51.01766968 37.0698542 51.01766968 37.0698542 51.90844727 37.34037781 C54.66283223 37.91230965 57.19383109 37.89344194 60.0078125 37.85473633 C61.78115967 37.83525688 61.78115967 37.83525688 63.59033203 37.81538391 C64.86634277 37.79767441 66.14235352 37.7799649 67.45703125 37.76171875 C69.4744019 37.74505562 71.4917731 37.72841796 73.50915527 37.71321392 C78.471966 37.67524569 83.43452072 37.62913507 88.39697266 37.55786133 C91.85753749 37.50882059 95.31778783 37.48019554 98.77865601 37.46411705 C100.71498619 37.44962693 102.65111874 37.41369908 104.5871582 37.37715149 C116.507087 37.34230516 129.10098417 40.3061768 138.11328125 48.62109375 C145.25313895 56.35089731 148.29041634 63.71625715 148.26953125 74.1796875 C148.27210938 75.46617187 148.2746875 76.75265625 148.27734375 78.078125 C148.15782157 81.43177673 147.74300931 84.5107739 147.14453125 87.8046875 C146.45895225 94.67171646 147.57785631 99.98125019 150.171875 106.359375 C151.14453125 108.8046875 151.14453125 108.8046875 151.5234375 111 C151.97418585 112.9769233 151.97418585 112.9769233 153.94580078 113.76098633 C155.03417236 114.27761841 155.03417236 114.27761841 156.14453125 114.8046875 C157.42547722 115.6176438 158.6919857 116.45367127 159.9453125 117.30859375 C160.66823486 117.79779297 161.39115723 118.28699219 162.13598633 118.79101562 C162.90193115 119.31115234 163.66787598 119.83128906 164.45703125 120.3671875 C170.94949047 124.74522405 177.50530597 128.94082394 184.28442383 132.86157227 C194.27950651 138.69380708 201.59154258 147.20738807 205.5234375 158.19921875 C207.13853072 164.97448403 207.17486914 172.54177817 204.3125 178.9921875 C199.72271937 186.11479021 192.77263646 189.45226484 184.74647522 191.38093567 C182.08066418 191.91342056 179.41172007 192.38757992 176.73046875 192.8359375 C175.73308685 193.00565063 174.73570496 193.17536377 173.70809937 193.35021973 C162.11985971 195.24443062 150.46090298 196.28288782 138.76953125 197.3046875 C134.48990125 197.67996812 130.21142007 198.0656322 125.93359375 198.4609375 C124.88770081 198.55342773 123.84180786 198.64591797 122.76422119 198.74121094 C117.18188873 199.27203339 111.72661806 200.02165679 106.22167969 201.09765625 C105.09208832 201.31208374 103.96249695 201.52651123 102.79867554 201.74743652 C100.64020254 202.17090863 98.48801674 202.6283053 96.34512329 203.12463379 C89.25924844 204.5098832 89.25924844 204.5098832 85.96069336 202.42314148 C84.1525504 200.64270779 82.63518114 198.85488754 81.14453125 196.8046875 C78.28008918 193.18169874 75.55427448 190.33330395 71.89453125 187.4921875 C71.0025 186.79480469 70.11046875 186.09742188 69.19140625 185.37890625 C68.5159375 184.85941406 67.84046875 184.33992187 67.14453125 183.8046875 C68.85494026 179.40403717 70.77535416 175.11094393 72.70703125 170.8046875 C75.81977556 163.81751593 78.91117481 156.82129379 81.95703125 149.8046875 C82.32965088 148.95777344 82.70227051 148.11085937 83.08618164 147.23828125 C86.90940812 138.38467591 90.43108421 129.59292148 89.14453125 119.8046875 C87.91230666 116.84734849 86.95310587 115.43357887 84.45703125 113.4921875 C74.52448937 110.53926964 63.82841614 115.10665983 55.14453125 119.8046875 C47.98369275 124.2091715 42.09661543 129.9252882 36.14453125 135.8046875 C35.3453125 136.5884375 34.54609375 137.3721875 33.72265625 138.1796875 C31.84793213 140.04031595 29.99214199 141.91720026 28.14453125 143.8046875 C24.14453125 147.8046875 20.14453125 151.8046875 16.14453125 155.8046875 C15.09833618 155.44286377 15.09833618 155.44286377 14.03100586 155.07373047 C-0.1910749 150.17983603 -14.39634433 145.64001222 -28.9921875 141.99609375 C-29.81380371 141.78742676 -30.63541992 141.57875977 -31.48193359 141.36376953 C-33.04399309 140.99582916 -34.61869581 140.67745652 -36.20166016 140.41357422 C-38.375 140.01953125 -38.375 140.01953125 -41.85546875 138.8046875 C-43.23828125 136.15234375 -43.23828125 136.15234375 -43.85546875 132.8046875 C-44.31566406 131.03931641 -44.31566406 131.03931641 -44.78515625 129.23828125 C-53.76930431 91.84518231 -60.99021421 51.68962619 -41.48046875 16.3671875 C-31.47038464 0.21056052 -18.81295769 -8.72842336 0 0 Z " fill="#FBC11B" transform="translate(675.85546875,68.1953125)"/>
<path d="M0 0 C7.02284639 -0.34434602 13.52950541 0.79826217 20.33984375 2.3515625 C21.14800537 2.53082275 21.95616699 2.71008301 22.78881836 2.89477539 C37.17716753 6.439609 50.62891501 13.29130711 63.72167969 20.06811523 C65.97906527 21.23390699 68.24489022 22.38199512 70.51171875 23.52929688 C98.41722425 37.80042006 98.41722425 37.80042006 103.08984375 49.2890625 C103.92594874 53.63976809 104.01066212 57.58066315 101.875 61.54296875 C96.8509625 67.77277526 88.96488025 72.55940058 80.92358398 73.55810547 C73.98408952 73.83466706 69.90291206 72.14247332 64.15234375 68.4140625 C62.48090666 67.39427806 60.80767962 66.37742245 59.1328125 65.36328125 C58.29153809 64.84685059 57.45026367 64.33041992 56.58349609 63.79833984 C35.23754085 50.87874954 11.46885742 41.63174267 -12.546875 34.9921875 C-13.31 34.77860596 -14.073125 34.56502441 -14.859375 34.3449707 C-16.29175819 33.94922172 -17.72778104 33.56628194 -19.16796875 33.19995117 C-24.26601026 31.80493016 -27.78336406 29.60832483 -31.91015625 26.2890625 C-33.69591986 22.71753527 -33.6359065 19.17213647 -32.91015625 15.2890625 C-29.07303589 8.1247381 -22.38050171 4.73300333 -14.91015625 2.2890625 C-9.96698015 1.02514465 -5.06569929 0.50317013 0 0 Z " fill="#EB6B2F" transform="translate(627.91015625,248.7109375)"/>
<path d="M0 0 C8.79461485 6.96240342 17.35680299 15.86069471 19.41015625 27.28125 C19.81665296 33.36827764 17.86485892 37.39406376 14 42 C8.63713959 47.8175377 3.09881048 51.65383899 -4.96142578 52.11132812 C-9.64628938 52.24219613 -14.31678747 52.15514937 -19 52 C-17.0534743 45.2688098 -14.87782118 38.66590496 -12.4609375 32.08984375 C-12.13461334 31.19632706 -11.80828918 30.30281036 -11.47207642 29.38221741 C-10.78944738 27.51543992 -10.10538167 25.64918719 -9.41992188 23.78344727 C-8.36678691 20.91513086 -7.31984347 18.04460528 -6.2734375 15.17382812 C-5.60713661 13.3540327 -4.94048295 11.53436639 -4.2734375 9.71484375 C-3.95990326 8.85455063 -3.64636902 7.99425751 -3.32333374 7.1078949 C-1.11503203 1.11503203 -1.11503203 1.11503203 0 0 Z " fill="#F8BF1B" transform="translate(545,717)"/>
<path d="M0 0 C-0.65550439 5.29588291 -2.29401558 9.93831293 -4.16015625 14.8984375 C-4.46948593 15.73339752 -4.77881561 16.56835754 -5.09751892 17.42861938 C-6.08083201 20.07930834 -7.07154473 22.72715983 -8.0625 25.375 C-8.73291325 27.1782028 -9.40284045 28.9815864 -10.07226562 30.78515625 C-11.70922351 35.19221727 -13.35282066 39.59674968 -15 44 C-20.79732132 44 -23.01161878 40.92690328 -27 37 C-32.06371554 31.84565868 -35.49834298 26.94159088 -36.4375 19.5625 C-35.69049655 13.47975761 -33.31415938 8.92726451 -28.875 4.6875 C-20.90040076 -1.5394743 -9.59246831 -2.76620017 0 0 Z " fill="#F8BF1B" transform="translate(528,525)"/>
</svg>